<svg id="レイヤー_1" data-name="レイヤー 1" xmlns="http://www.w3.org/2000/svg" xmlns:xlink="http://www.w3.org/1999/xlink" viewBox="0 0 2000 2000"><defs><style>.cls-1{fill:url(#名称未設定グラデーション_25);}.cls-2{opacity:0.9;}.cls-3{fill:url(#名称未設定グラデーション_25-2);}.cls-4{font-size:824px;fill:#6073ff;stroke:#000;stroke-miterlimit:10;font-family:GillSansMT-ExtraCondensedBold, Gill Sans MT Ext Condensed Bold;font-weight:700;}</style><linearGradient id="名称未設定グラデーション_25" y1="1000" x2="2000" y2="1000" gradientUnits="userSpaceOnUse"><stop offset="0" stop-color="#cce0f4"/><stop offset="0.47" stop-color="#faf"/><stop offset="0.5" stop-color="#eda6fa"/><stop offset="0.56" stop-color="#bf9def"/><stop offset="0.64" stop-color="#748ddc"/><stop offset="0.74" stop-color="#0e78c2"/><stop offset="0.76" stop-color="#0075be"/><stop offset="0.94" stop-color="#005b97"/></linearGradient><linearGradient id="名称未設定グラデーション_25-2" x1="66.5" y1="892.52" x2="1529.3" y2="892.52" xlink:href="#名称未設定グラデーション_25"/></defs><rect class="cls-1" width="2000" height="2000"/><g class="cls-2"><path class="cls-3" d="M80.85,157.13H171l30.08,167.11,31.07-167.11h88.92L244.61,499.92V813H156.09v-313Z"/><path class="cls-3" d="M412.79,151.9H509L578.15,813H488.83l-4.35-117.89H435L426.21,813H338.35Zm49.68,108.63h-7.28q-4,137.6-6.06,176.23l-9.31,172.6h38.7l-6.75-133.17Z"/><path class="cls-3" d="M609.13,157.13h88.51V446.41q15.57-15.69,21.55-28.56,13.15-28.58,19.54-75.24t6.39-130V157.13H834v99.78q0,74-18.51,135.19a236,236,0,0,1-37.82,74q26.55,28.17,41.44,81.67T834,715.58V813H745.12V729.26q0-75.63-7-130.16T718,522.86a40.26,40.26,0,0,0-20.35-17.71V813H609.13Z"/><path class="cls-3" d="M873.07,157.13h88.51V813H873.07Z"/><path class="cls-3" d="M82.46,1427.59q20.52,8.87,37.82,8.85,23.73,0,37.62-15.28t13.88-45.07a194,194,0,0,0-5.23-45.46q-10.06-43.05-37-111.65T89.7,1094.45q-7.23-31.77-7.24-70.81,0-84.49,32.79-123.12t85.5-38.62q24.54,0,56.33,10.06v87.3q-18.51-8.84-33.8-8.85-22.53,0-38.22,18.51t-15.69,53.91a205.38,205.38,0,0,0,5.14,45.87q9.88,42.25,33.74,105,29.91,78.46,43.6,140.42a315.11,315.11,0,0,1,6.84,67.19q0,70.83-34.4,108.84t-85.9,38q-22.54,0-55.93-10.46Z"/><path class="cls-3" d="M284.44,1203.49q0-189.9,40.63-275.61,31.4-66,78.06-66,21.72,0,42.65,16.09t38.62,57.74q17.7,41.64,27,111.45t9.25,149.07q0,200.36-48.68,283.25-28.57,48.68-67.19,48.68-54.32,0-84.09-77.25Q284.44,1355.57,284.44,1203.49Zm118.69-240.6a143.3,143.3,0,0,0-15.69,38.82q-5.24,21.12-7.65,75.84-3.62,86.12-3.62,135.59,0,111.46,8.85,160.54,5.64,31.38,18.11,55.12a197.39,197.39,0,0,0,16.5-44.86q4.81-21.53,6.43-75.84,2.82-100.59,2.82-146.86,0-103.4-8.45-148.06Q414.79,983.41,403.13,962.89Z"/><path class="cls-3" d="M557.63,867.13h55.92q76.05,0,120.71,47.68t44.66,133q0,90.14-58.34,141.63,32.17,22.92,47.47,51.5,22.13,40.63,22.13,97.76,0,56.74-21.32,101-16.1,33-53.71,58.14T624.82,1523H557.63Zm88.51,94.55v183.47Q690,1125.08,690,1054q0-42.55-16.5-69.86Q661.44,964.9,646.14,961.68Zm0,278.82v187.9q22.13-6.83,37-29.91t14.89-60.42q0-32.52-13.88-58.62T646.14,1240.5Z"/><path class="cls-3" d="M884.73,861.9h96.16L1050.1,1523H960.78l-4.35-117.89H907L898.16,1523H810.3Zm49.69,108.63h-7.28q-4,137.6-6.06,176.23l-9.31,172.6h38.7l-6.75-133.17Z"/><text class="cls-4" transform="translate(72 812.95)">YAKI<tspan x="0" y="710">SOBA</tspan></text></g></svg>