<svg id="レイヤー_1" data-name="レイヤー 1" xmlns="http://www.w3.org/2000/svg" viewBox="0 0 1249.61 1072.56"><defs><style>.cls-1{fill:#fbcd3b;}.cls-2{fill:#fc3;}.cls-3{fill:#e6e6e6;}.cls-4,.cls-5{fill:none;stroke:#000;stroke-miterlimit:10;}.cls-4{stroke-width:8px;}.cls-5{stroke-width:9px;}</style></defs><rect class="cls-1" x="112.43" y="400.09" width="1024.6" height="668.47"/><polygon class="cls-2" points="624.53 40.56 1137.03 400.09 112.03 400.09 624.53 40.56"/><rect class="cls-3" x="481.39" y="744.98" width="288" height="323.58"/><ellipse class="cls-3" cx="624.07" cy="716.35" rx="144" ry="144.48"/><line class="cls-4" x1="112.43" y1="1068.56" x2="1137.03" y2="1068.56"/><line class="cls-4" x1="1137.03" y1="400.09" x2="1137.03" y2="1068.56"/><line class="cls-4" x1="624.73" y1="40.56" x2="1137.03" y2="400.09"/><line class="cls-4" x1="112.43" y1="400.09" x2="624.73" y2="40.56"/><line class="cls-4" x1="112.43" y1="1068.56" x2="112.43" y2="400.09"/><path class="cls-4" d="M1122,1057V683.88c-.14-7.43-2.2-62.69-55.49-98.44-40.57-27.22-85.23-25.94-97.76-25.18-10,.61-59.18,4.49-96.44,40.06-3.73,3.57-29.55,28.87-35.66,66.39a100.84,100.84,0,0,0-1.33,17.17c.19,32.64.11,175.88,0,373.12" transform="translate(-353.97 11.56)"/><text x="-353.97" y="11.56"/><path class="cls-1" d="M951,23.69,378.16,433.11C340.69,459.9,359.64,519,405.7,519H1551.3c46.06,0,65-59.1,27.54-85.89L1006,23.69A47.34,47.34,0,0,0,951,23.69Z" transform="translate(-353.97 11.56)"/><line class="cls-5" x1="596.53" y1="35.06" x2="24.53" y2="445.06"/><path class="cls-5" d="M1491,518.5h67.43c3.26-.44,19.74-3,31.07-18,8.45-11.17,11.86-26.36,8-39-4.39-14.37-18.91-27.88-19-28h0" transform="translate(-353.97 11.56)"/><path class="cls-5" d="M1010.5,26.5" transform="translate(-353.97 11.56)"/><path class="cls-5" d="M378.5,433.5c-2.05,1.47-19.19,14.18-20,37-.51,14.36,5.53,30,17,38,11.13,7.74,29.83,10,30,10" transform="translate(-353.97 11.56)"/><path class="cls-5" d="M406,519h60" transform="translate(-353.97 11.56)"/><path class="cls-5" d="M1579,433,1011,27a48.27,48.27,0,0,0-60.5-3.5" transform="translate(-353.97 11.56)"/></svg>