<svg id="レイヤー_1" data-name="レイヤー 1" xmlns="http://www.w3.org/2000/svg" viewBox="0 0 591.78 852.82"><defs><style>.cls-1,.cls-3{fill:#4d4d4d;}.cls-1,.cls-4{stroke:#4d4d4d;}.cls-1,.cls-2,.cls-4{stroke-miterlimit:10;}.cls-1{stroke-width:18px;}.cls-2{fill:#ccc;stroke:#ccc;stroke-width:30px;}.cls-4{fill:none;stroke-width:23px;}</style></defs><rect class="cls-1" x="636.19" y="118.78" width="100.34" height="161.03" transform="translate(-77.35 581.01) rotate(-56.85)"/><rect class="cls-2" x="196.99" y="440.8" width="591.48" height="161" transform="translate(-426.66 603.37) rotate(-60)"/><path class="cls-3" d="M251.83,929.41c1.31-.69,2.65-1.32,4-1.9l161.42-82.65L254.38,734.64,236.62,926.52C241.49,928,247.11,928.07,251.83,929.41Z" transform="translate(-221.56 -84)"/><line class="cls-4" x1="421.76" y1="6" x2="23.9" y2="656.39"/><line class="cls-4" x1="581.94" y1="110.6" x2="187.95" y2="762.33"/><path class="cls-4" d="M245.92,735C242,798,237,861,233.63,923.81" transform="translate(-221.56 -84)"/><path class="cls-4" d="M413.5,839.5C408,844,401,845,395,849c-9,5-18,8-27,12-45,22-87,44-131.63,64.21" transform="translate(-221.56 -84)"/><line class="cls-4" x1="30.36" y1="640.3" x2="190.53" y2="744.9"/><line class="cls-4" x1="411.76" y1="14" x2="571.94" y2="118.6"/><line class="cls-4" x1="355.88" y1="117.31" x2="516.06" y2="221.9"/><path class="cls-3" d="M221.87,921.64c-1.38,5.37,2,10.39,6.65,12.86,3.83,2,9.12,3.39,13.18,1.2a6.7,6.7,0,0,0,3.47-5.6,9.61,9.61,0,0,0-2.87-7,20,20,0,0,0-3-2.52c-1-.7-2.19-1.78-3.44-1.89a2.72,2.72,0,0,0-2.81,2c-.43,1.38.2,2.65.81,3.86.79,1.56,1.64,3.09,2.38,4.67.21.45.66,1.23.34,1.73-.1.16-.1.08,0,.1-.11,0-.26-.34-.31-.42a14.55,14.55,0,0,1-1.81-9l-2.26,1.3a4.94,4.94,0,0,1,2,1.78.77.77,0,0,1,0,.75c-.06.13-.18.2-.24.31s.06,0,0,0l1.05,1c-.05-.22,0,.26,0,.26s.62-.1.2-.06a.43.43,0,0,1-.41-.13s-.11-.45-.16-.35.3.08.29.1a16.53,16.53,0,0,0-1.2-2.37c-.45-.9-.88-1.82-1.35-2.72a6.05,6.05,0,0,0-3.16-3.21,3.6,3.6,0,0,0-3.79,1c-2.11,2.27-1.43,5.74.1,8.11a17.23,17.23,0,0,0,3.26,3.61c1.08.93,2.49,2.46,4,2.4a2.08,2.08,0,0,0,2-1.93,7.74,7.74,0,0,0-.84-3.06l-2.42-6.61c-.39-1.06-2.18-1.65-2.74-.35a4.62,4.62,0,0,0-.4,1.31c-.05.42,0,.88-.05,1.29,0,0-.1.33-.09.35-.15.17,0,.21.52.11s.63-.06.54.21,0,.17,0,.11a.31.31,0,0,1,.15-.1c.07,0,.55-.19.6-.2l-1.85-1.85c-1.36,4.7,4.55,7.27,8.35,6.35,2.28-.56,3-2.43,3.27-4.53l1.06-7.84a1.57,1.57,0,0,0-1.05-1.85,1.5,1.5,0,0,0-1.84,1l-.73,5.35-.36,2.68a4,4,0,0,1-.44,1.88c-.7.82-2.52.41-3.39.17-1.08-.32-2.35-1.16-2-2.46a1.52,1.52,0,0,0-1.85-1.85,3.69,3.69,0,0,0-2.81,2.27,2.65,2.65,0,0,0,1.07,3,2.38,2.38,0,0,0,3.14-.74,3.41,3.41,0,0,0,.6-1.46,8.07,8.07,0,0,1,.11-1.72l-2.74-.36,1.67,4.59.81,2.2a6.33,6.33,0,0,1,.67,2.08l.21-.76c.16-.32,1,.06.78-.33a1.91,1.91,0,0,0-.36-.25c-.25-.18-.48-.38-.71-.57-.59-.48-1.17-1-1.72-1.5a10.82,10.82,0,0,1-2.39-3.07,3.89,3.89,0,0,1-.38-3c.24-.67.69-1.2,1.38-.67,1,.76,1.5,2.33,2,3.41.67,1.36,1.24,3.29,2.48,4.24,2.21,1.71,5.59-1.16,4.26-3.63-1.53-2.83-6-.76-5.25,2.22a1.5,1.5,0,0,0,1.05,1c2.17.63,4.06-1.32,4.14-3.42.07-2.26-1.93-3.78-3.63-4.86a1.51,1.51,0,0,0-2.26,1.29,17.84,17.84,0,0,0,.85,7.43c.65,1.88,1.7,4.87,4.1,5,2.64.1,3.67-2.86,3-5a25,25,0,0,0-1.68-3.5l-.94-1.84c-.11-.23-.22-.45-.34-.67a7.37,7.37,0,0,0-.53-1.21c.63.75-.13-.42,0-.21h0c-.29.11-.27.22.06.31a6.28,6.28,0,0,0,1.34.9A18.79,18.79,0,0,1,240,925c1.46,1.49,2.7,3.71,2.07,5.85-1.08,3.74-6.29,3.12-9.11,2.22-4.48-1.43-9.52-5.33-8.16-10.67.48-1.87-2.41-2.67-2.89-.8Z" transform="translate(-221.56 -84)"/></svg>