<svg id="レイヤー_1" data-name="レイヤー 1" xmlns="http://www.w3.org/2000/svg" xmlns:xlink="http://www.w3.org/1999/xlink" viewBox="0 0 1356.94 1064"><defs><style>.cls-1{fill:url(#名称未設定グラデーション_3);}.cls-2{fill:none;stroke-miterlimit:10;stroke-width:99px;}.cls-2,.cls-3{stroke:#000;}.cls-3{stroke-miterlimit:10;stroke-width:14px;}.cls-4{font-size:246px;font-family:HGPSoeiKakupoptai;}</style><radialGradient id="名称未設定グラデーション_3" cx="781.04" cy="737.01" r="273" gradientTransform="matrix(0.93, 0, 0, -0.95, 87.55, 995.78)" gradientUnits="userSpaceOnUse"><stop offset="0.45" stop-color="#fff"/><stop offset="0.55" stop-color="#fcfcfc"/><stop offset="0.62" stop-color="#f2f2f2"/><stop offset="0.68" stop-color="#e2e2e2"/><stop offset="0.74" stop-color="#cbcbcb"/><stop offset="0.8" stop-color="#adadad"/><stop offset="0.86" stop-color="#888"/><stop offset="0.91" stop-color="#5d5d5d"/><stop offset="0.96" stop-color="#2c2c2c"/><stop offset="1"/></radialGradient></defs><path class="cls-1" d="M817.59,556.59c-140.92,0-255.18-115.6-255.23-258.31S676.52,39.86,817.44,39.81s255.18,115.61,255.22,258.32A260.06,260.06,0,0,1,998,480.88,251.84,251.84,0,0,1,817.59,556.59Z" transform="translate(-311.06 -10)"/><path d="M817.59,69.63C941.76,69.84,1042.25,172,1042,297.71S941,525.23,816.82,525,592.15,422.69,592.36,296.93c.16-91.38,54.25-173.82,137.37-209.37a221.91,221.91,0,0,1,87.86-17.93m0-59.63C660.41,10,533,139,533,298.2S660.41,586.41,817.59,586.41s284.58-129,284.58-288.21S974.76,10,817.59,10Z" transform="translate(-311.06 -10)"/><line class="cls-2" x1="703.73" y1="436.8" x2="1104.67" y2="749.14"/><ellipse class="cls-3" cx="1407.01" cy="752.29" rx="39.85" ry="40.34" transform="translate(-337.62 41.93) rotate(-2.09)"/><text class="cls-4" transform="translate(0 1028.17)">レシピを探す</text></svg>