<svg id="レイヤー_1" data-name="レイヤー 1" xmlns="http://www.w3.org/2000/svg" xmlns:xlink="http://www.w3.org/1999/xlink" viewBox="0 0 1356.94 1068.25"><defs><style>.cls-1{fill:url(#名称未設定グラデーション_3);}.cls-2{fill:none;stroke-miterlimit:10;stroke-width:99px;}.cls-2,.cls-3{stroke:#000;}.cls-3{stroke-miterlimit:10;stroke-width:14px;}.cls-4{font-size:246px;font-family:HGPSoeiKakupoptai;}</style><radialGradient id="名称未設定グラデーション_3" cx="833.47" cy="694.75" r="273" gradientTransform="matrix(1, 0, 0, -1, -11, 1005)" gradientUnits="userSpaceOnUse"><stop offset="0.45" stop-color="#fff"/><stop offset="0.55" stop-color="#fcfcfc"/><stop offset="0.62" stop-color="#f2f2f2"/><stop offset="0.68" stop-color="#e2e2e2"/><stop offset="0.74" stop-color="#cbcbcb"/><stop offset="0.8" stop-color="#adadad"/><stop offset="0.86" stop-color="#888"/><stop offset="0.91" stop-color="#5d5d5d"/><stop offset="0.96" stop-color="#2c2c2c"/><stop offset="1"/></radialGradient></defs><path class="cls-1" d="M822.55,583.25c-150.77,0-273-122.15-273.08-272.92s122.15-273,272.92-273.08,273,122.14,273.08,272.92A273,273,0,0,1,822.55,583.25Z" transform="translate(-311.06 -5.75)"/><path d="M822.55,68.75c132.87.23,240.39,108.12,240.16,241s-108.12,240.39-241,240.16-240.39-108.12-240.16-241a240.57,240.57,0,0,1,241-240.16m0-63c-168.17,0-304.5,136.33-304.5,304.5s136.33,304.5,304.5,304.5,304.5-136.33,304.5-304.5S990.72,5.75,822.55,5.75Z" transform="translate(-311.06 -5.75)"/><line class="cls-2" x1="722.49" y1="461.5" x2="1151.49" y2="791.5"/><ellipse class="cls-3" cx="1453.22" cy="790.01" rx="42.61" ry="42.65" transform="translate(-370.08 1454.41) rotate(-52.43)"/><text class="cls-4" transform="translate(0 1032.42)">レシピを探す</text></svg>