<svg id="レイヤー_1" data-name="レイヤー 1" xmlns="http://www.w3.org/2000/svg" viewBox="0 0 528.63 358.98"><defs><style>.cls-1{fill:#29abe2;}.cls-2,.cls-3{fill:#fff;}.cls-3{stroke:#000;stroke-miterlimit:10;stroke-width:12px;}</style></defs><polygon class="cls-1" points="90.46 6.68 516.65 179.49 90.46 352.3 90.46 6.68"/><path d="M44,94.36,453.72,260.49,44,426.62V94.36M35,81V440L477.67,260.49,35,81Z" transform="translate(50.96 -81)"/><path class="cls-2" d="M48.62,295A9.65,9.65,0,0,1,39,285.39V235.61A9.64,9.64,0,0,1,48.62,226a11.27,11.27,0,0,1,1.16.06l209.63,24.89c6.28.75,8.51,5.63,8.51,9.58s-2.23,8.83-8.51,9.58L49.78,295A11.28,11.28,0,0,1,48.62,295Z" transform="translate(50.96 -81)"/><path d="M48.62,220v12a3.62,3.62,0,0,1,.46,0L258.7,256.88a3.64,3.64,0,0,1,0,7.24L49.08,289A3.69,3.69,0,0,1,45,285.39V235.61A3.63,3.63,0,0,1,48.62,232V220m0,0A15.65,15.65,0,0,0,33,235.61v49.78A15.65,15.65,0,0,0,48.62,301a14.77,14.77,0,0,0,1.87-.11L260.12,276c18.4-2.19,18.4-28.89,0-31.08L50.49,220.08a14.77,14.77,0,0,0-1.87-.11Z" transform="translate(50.96 -81)"/><path class="cls-3" d="M52,259" transform="translate(50.96 -81)"/><path class="cls-2" d="M50.78,261.28a229,229,0,0,0-33.21,4.09c-1.67.34-1.26,3,.4,2.95q8.84-.07,17.66,0l4.23,0a8.48,8.48,0,0,1,1.82.1,13.48,13.48,0,0,1,1.59.74c2.38,1,4.38-.61,6.4-1.65,1.45-.74.6-2.67-.75-2.8a83.52,83.52,0,0,0-17.1.13c-1.87.21-2,3.06,0,3l11.82-.35-.4-2.95a20.34,20.34,0,0,0-8.3,3.27c-1,.66-1,2.46.36,2.74l9.39,1.91c1.89.38,2.69-2.51.8-2.89l-9.39-1.92.35,2.75a18.15,18.15,0,0,1,7.59-3c1.68-.26,1.27-3-.4-2.95l-11.82.35v3a83.52,83.52,0,0,1,17.1-.13l-.76-2.79a13.13,13.13,0,0,1-2.93,1.51c-1,.2-1.81-.67-2.75-.9a15.59,15.59,0,0,0-3.61-.22l-4.23,0q-8.34,0-16.67,0l.4,2.94a222.09,222.09,0,0,1,32.41-4c1.92-.09,1.93-3.09,0-3Z" transform="translate(50.96 -81)"/><path class="cls-2" d="M47.64,269a34.57,34.57,0,0,0-10.59-.82l.4,2.95a9.07,9.07,0,0,1,3-.41c1.94.06,1.91-2.89,0-3a13.42,13.42,0,0,0-6.1,1.13c-1,.46-2,1.32-1.64,2.59s1.91,1.21,3.05,1.2l13.77-.12a1.5,1.5,0,0,0,0-3l-7.65.07-3.67,0c-1.28,0-2.6.11-3.88,0l.76.21-.18-.1.69.9,0-.17v.8l.07-.17-.38.66a5.45,5.45,0,0,1,2.42-.86,10.87,10.87,0,0,1,2.79-.18v-3a12.07,12.07,0,0,0-3.82.52c-1.57.48-1.34,3,.4,2.94a31.56,31.56,0,0,1,9.79.72,1.51,1.51,0,0,0,.8-2.9Z" transform="translate(50.96 -81)"/><path class="cls-2" d="M47.07,270.44a100.12,100.12,0,0,1-12.36.73,1.5,1.5,0,0,0,0,3,100.12,100.12,0,0,0,12.36-.73,1.54,1.54,0,0,0,1.5-1.5,1.5,1.5,0,0,0-1.5-1.5Z" transform="translate(50.96 -81)"/><path class="cls-2" d="M33.31,275.2A27,27,0,0,0,41,275a31.62,31.62,0,0,1,3.75-.32c1.3,0,2.6.1,3.89.16,1.93.08,1.93-2.92,0-3a43.07,43.07,0,0,0-7.36.12,26.46,26.46,0,0,1-7.21.4,1.54,1.54,0,0,0-1.84,1.05,1.5,1.5,0,0,0,1.05,1.84Z" transform="translate(50.96 -81)"/><path class="cls-2" d="M47.07,259.49q-12.12-.25-24.25,0a1.5,1.5,0,0,0,0,3H36.27q1.14.22.09-1a1.5,1.5,0,0,0,1.45,1.89,22.46,22.46,0,0,0,6.74-1.17c1.3-.44,1.54-2.56,0-2.89A107.22,107.22,0,0,0,20.72,257a1.5,1.5,0,0,0,0,3q12.86.76,25.74.43a1.5,1.5,0,0,0,0-3,49.79,49.79,0,0,0-10.48.87c-1.8.34-1.13,2.76.4,2.94a58.65,58.65,0,0,0,14.26,0c1.86-.22,2-3,0-3H43.77a29.89,29.89,0,0,1-6.06-.15c-2-.43-3.83-1.42-5.76-2a47.74,47.74,0,0,0-6.38-1.4c-1.86-.29-2.72,2.44-.8,2.89,13.38,3.11,26.88,6.2,40.68,6.46,2,0,1.87-2.78,0-3l-44.86-5.28.4,3c2.79-1.15,6.29-.77,9.25-.82,3.35-.06,6.69-.07,10,0a1.5,1.5,0,0,0,0-3q-6.47-.24-12.92-.15v3a124.38,124.38,0,0,1,20.49,1.37l.4-3-10.64-1.28c-1.69-.2-3.39-.39-5.06-.71a12.94,12.94,0,0,0-2.64-.64L29.85,255l.63-.05,1.47-.09c7.31-.36,14.59.68,21.8,1.72,1.85.27,2.73-2.42.8-2.89a92.09,92.09,0,0,0-20.82-2.86,1.51,1.51,0,0,0-.39,3l11.93,3.07.4-2.95c-1.58.12-3.15.19-4.73.17a18.45,18.45,0,0,1-4.27-.28,4.2,4.2,0,0,1-2.36-2.05A8,8,0,0,0,32,249.35l-.36,2.75c1.91-.43,3.82.18,5.67.62L43,254.1l11.46,2.75.8-2.89-12.85-2.83-6.31-1.39-3.15-.69c-.45-.1-1.75-.23-1.9-.76L30,250.14c3.4-.47,7,.4,10.36.88l10.38,1.47.4-3a37.64,37.64,0,0,1-17.76-4.43l-.76,2.8A29.7,29.7,0,0,1,42.84,250c1.8.7,2.58-2.2.8-2.9a32.34,32.34,0,0,0-11-2.15,1.51,1.51,0,0,0-.76,2.79,40.9,40.9,0,0,0,19.28,4.84c1.63,0,2.12-2.7.4-2.95L40.17,248c-3.65-.52-7.3-1.25-11-.75a1.53,1.53,0,0,0-1.05,1.85c.55,1.87,2.27,2.46,4,2.85l7.52,1.66,14.79,3.25c1.88.41,2.68-2.44.8-2.89l-12.41-3c-2.06-.49-4.12-1-6.19-1.48a13,13,0,0,0-5.84-.29,1.51,1.51,0,0,0-.36,2.74,10.15,10.15,0,0,1,2.3,2.66,5.8,5.8,0,0,0,3.13,2c3.08.77,6.67.46,9.8.22,1.61-.12,2.12-2.5.4-2.94l-11.94-3.07-.4,2.94a88.35,88.35,0,0,1,20,2.75l.8-2.89C50,253,45.53,252.34,41,252c-2.27-.17-4.56-.27-6.84-.24-1.14,0-2.28.06-3.42.14a5.35,5.35,0,0,0-2.59.55c-1.68,1.1-1,3.2.67,3.86a25.14,25.14,0,0,0,6,1.23c4.46.58,8.94,1.08,13.41,1.62,1.66.2,2.07-2.69.4-2.94a129.68,129.68,0,0,0-21.29-1.48,1.5,1.5,0,0,0,0,3q6.47-.09,12.92.15v-3c-3.51,0-7,0-10.53,0-3.08.06-6.65-.28-9.56.92a1.51,1.51,0,0,0,.4,2.94l44.86,5.28v-3c-13.53-.25-26.76-3.3-39.88-6.35l-.8,2.89a49.35,49.35,0,0,1,6.38,1.4c2.06.61,4.07,1.69,6.18,2.07a37.39,37.39,0,0,0,6.44.18h6.87v-3a58.65,58.65,0,0,1-14.26,0l.4,3a46.22,46.22,0,0,1,9.68-.76v-3q-12.87.33-25.74-.43v3a103.63,103.63,0,0,1,23,2.23v-2.89a20.07,20.07,0,0,1-5.94,1.06l1.45,1.9a2.07,2.07,0,0,0-1.48-2.61c-1.42-.49-3.27-.19-4.75-.19l-10.21,0v3q12.13-.28,24.25,0c1.94,0,1.93-3,0-3Z" transform="translate(50.96 -81)"/><path class="cls-2" d="M49.11,246.79c-1.22,0-2.44-.06-3.65-.16l-1.75-.18-.43,0-.18,0-1-.15a1.5,1.5,0,1,0-.8,2.89,52.57,52.57,0,0,0,7.82.67,1.51,1.51,0,0,0,1.5-1.5,1.53,1.53,0,0,0-1.5-1.5Z" transform="translate(50.96 -81)"/><path class="cls-2" d="M47.44,246.58a15.14,15.14,0,0,0-5.38-.91,54.85,54.85,0,0,1-6-.71,59.82,59.82,0,0,1-11.39-3.19c-1.8-.69-2.58,2.21-.8,2.9a60.79,60.79,0,0,0,11,3.11c1.84.33,3.69.59,5.55.76s3.88-.09,5.53.63,3.28-1.83,1.51-2.59Z" transform="translate(50.96 -81)"/><path d="M-49.51,232.14a1.5,1.5,0,0,0,0-3,1.5,1.5,0,0,0,0,3Z" transform="translate(50.96 -81)"/><path class="cls-2" d="M35,273.24a5.11,5.11,0,0,0-1.74,3.1,1.53,1.53,0,0,0,1.45,1.9l14.55-.58-1.06-2.57a.47.47,0,0,1-.6.08c-.32-.17-.56-.51-.89-.69a3.46,3.46,0,0,0-1.3-.36,23.65,23.65,0,0,0-4.29.07A13.87,13.87,0,0,0,33,277.07a1.5,1.5,0,1,0,2.12,2.12c2-1.7,4.88-2,7.43-2.08.68,0,1.36,0,2,0a3.12,3.12,0,0,1,.73,0c.2.09.54.5.82.66a3.56,3.56,0,0,0,4.18-.57,1.51,1.51,0,0,0-1.06-2.56l-14.55.58,1.45,1.9a2.58,2.58,0,0,1,1-1.78,1.51,1.51,0,0,0,0-2.12,1.54,1.54,0,0,0-2.12,0Z" transform="translate(50.96 -81)"/><path class="cls-2" d="M27.64,259.92c-.83,4.47,1.53,8.32,4.23,11.66.77.95,2.17.29,2.51-.66a69.8,69.8,0,0,0,3.86-19h-3c.46,7.54-1.59,15-.85,22.55a1.5,1.5,0,0,0,3,0,51.82,51.82,0,0,0,0-7.88c-.1-1.33-2.11-2.22-2.8-.75l-1.32,2.84,2.74.36-1.16-4.81c-.45-1.87-3.34-1.08-2.89.8l1.15,4.8a1.52,1.52,0,0,0,2.75.36l1.32-2.84-2.79-.76a51.82,51.82,0,0,1,0,7.88h3c-.74-7.54,1.31-15,.85-22.55a1.5,1.5,0,0,0-3,0,66.73,66.73,0,0,1-3.75,18.16l2.51-.66c-1.94-2.4-4.07-5.49-3.46-8.74.35-1.89-2.54-2.7-2.9-.8Z" transform="translate(50.96 -81)"/><path class="cls-2" d="M32.61,279.52a6.06,6.06,0,0,1,1.63-2.25l-2.51-1.46a15.93,15.93,0,0,1-.75,2.83l2.89.8A28.82,28.82,0,0,0,34.36,267a1.51,1.51,0,0,0-2.74-.36,7.74,7.74,0,0,0-.74,3.32,1.5,1.5,0,0,0,3,0,84,84,0,0,1,1.32-10.25H32.31c1,5-.21,10.28,1.69,15.16.42,1.09,2.11,1.62,2.74.35,2.53-5,2-10.64,1.08-16-.27-1.58-2.46-1.27-2.89,0a11.06,11.06,0,0,0-.6,3.13c-.12,1.94,2.83,1.9,3,0a67.92,67.92,0,0,0,.22-7.94,1.5,1.5,0,0,0-3,0v1.25c0,1.65,2.6,2.09,2.94.4a22.52,22.52,0,0,0,.48-5.18,1.5,1.5,0,0,0-3,0A26.13,26.13,0,0,1,31,263l2.74.36a40,40,0,0,0-1.66-5,1.52,1.52,0,0,0-2.74-.35,12.36,12.36,0,0,0-2.06,5.62h3L30.23,258c0-1.62-2.64-2.11-2.95-.39a26.6,26.6,0,0,0,0,9.29,1.51,1.51,0,0,0,2.51.66,3.91,3.91,0,0,0,1-1.77H27.86l.78,3.14a1.51,1.51,0,0,0,2.95-.4l.12-2.24-2.95.4,2.83,12.08c.38,1.59.54,3.6,1.61,4.9a2.9,2.9,0,0,0,3.91.71,1.52,1.52,0,0,0,0-2.59,14,14,0,0,0-4.29-1.62l.66,2.51L37,279.85c1.09-.86.11-2.51-1.07-2.56a3.14,3.14,0,0,0-1.69.43c-1.42.77-.61,2.64.76,2.79a42,42,0,0,0,12.8-.6L47,277q-7.18,1.78-14.29,3.84c-1.58.45-1.34,3.05.4,2.94l7.58-.44a26.46,26.46,0,0,0,6.91-1.11l-1.15-2.74c-4.71,3.5-11.11,2.45-16.41,4.43l1.16,2.74c2.29-1.27,4.92-1.13,7.46-1a28.06,28.06,0,0,0,7.82-.18l-1.69-2.21c-1,1.8-3.8,1.61-5.54,1.84a33.61,33.61,0,0,0-8,2l1.84,1.05c-.16-.88,2.13-.43,2.44-.36l-.36-2.74a9.26,9.26,0,0,0-3.95,4.91c-.55,1.6-.78,4.79,1.86,4.3,2-.39,2.49-2.87,4.32-3.49a19.88,19.88,0,0,1,3.53-.6l4.43-.65c2.16-.31,4.53-.49,6.16-2.14a7.65,7.65,0,0,0,1.79-6.2,60.83,60.83,0,0,0-1.52-7.67q-.89-3.9-1.91-7.75-1.18-4.44-2.54-8.83c-.43-1.39-.88-2.77-1.34-4.15a9.36,9.36,0,0,0-.69-1.92c-.24-.42-.62-.55-.94-.87l.24,1.82.07-.1L42,251.45l.36,1.13a1.52,1.52,0,0,0,2.51.66,10.19,10.19,0,0,0,3-7.46,1.52,1.52,0,0,0-1.1-1.45L28,240.85v2.9c6.8-1.09,13.71-.39,20.51.28l-1.06-2.57c-.88.8-2.23.64-3.31.46-1.53-.26-3-.62-4.57-.93-2.58-.54-5.5-.91-7.46-2.84l-1.46,2.51a89.53,89.53,0,0,0,18.24,2.13c1.8,0,1.89-2.36.4-2.95-3-1.16-6.27-1.56-9.37-2.21l-9.55-2-.4,2.94,16.81,2.22c1.75.23,1.93-2.45.4-2.95-5.36-1.76-11.42-1.23-16.47-4l-1.16,2.74a146.93,146.93,0,0,0,20.93,2c1.63,0,2.11-2.65.4-3l-20.83-3.58a1.5,1.5,0,0,0-.8,2.89c6,2,12.33,1.73,18.54,1.39,1.58-.09,2.16-2.65.4-3l-13.64-2.27-1.46-.24-1-.17c-.4-.07-.49-.09-.26,0a1.66,1.66,0,0,1,.19-.48c.31-.49-.1-.68-1.24-.54-.1.31.27,1,.4,1.31a5.07,5.07,0,0,0,3.8,2.89,1.5,1.5,0,0,0,.8-2.89,1.79,1.79,0,0,1-.93-2c.39-1.6-1.93-2.72-2.74-1.16a3.29,3.29,0,0,0,.52,3.85c1.09,1.17,2.75,1.39,4.24,1.68l11.76,2.26c1.88.36,2.69-2.53.79-2.9L41.13,231c-.58-.11-6.72-1.14-6.39-1.78L32,228.1a4.86,4.86,0,0,0,3,5.74l.8-2.89a2.33,2.33,0,0,1-2.08-2c-.31-1.06-.94-2-2.19-1.92-2.34.13-3.52,4.07-2,5.66.94,1,2.48,1,3.74,1.2l4.62.77,9.5,1.59.4-2.95c-5.95.33-12,.63-17.74-1.28l-.8,2.89,20.83,3.58.4-2.94a141.61,141.61,0,0,1-20.13-1.87c-1.55-.22-2.78,1.86-1.15,2.74,5.33,2.9,11.53,2.42,17.19,4.28l.39-2.95L30,235.56c-1.67-.22-2,2.6-.4,2.95l9.56,2c3.09.65,6.41,1,9.36,2.22l.4-3a85.27,85.27,0,0,1-17.44-2,1.51,1.51,0,0,0-1.46,2.5c2.6,2.56,6.27,3.09,9.69,3.8,3.21.66,7.14,2,9.89-.48A1.52,1.52,0,0,0,48.52,241c-7.1-.7-14.21-1.31-21.3-.18-1.45.23-1.42,2.63,0,2.9L46,247.22l-1.1-1.44a7.14,7.14,0,0,1-2.15,5.34l2.5.66-.36-1.13a1.52,1.52,0,0,0-2.74-.36l-.07.11a1.49,1.49,0,0,0,.23,1.81,3.24,3.24,0,0,0,.66.51c-.47-.27-.26-.57-.1,0a5.08,5.08,0,0,0,.23.69c.35,1.07.7,2.15,1,3.22.66,2.08,1.28,4.16,1.88,6.26q1.79,6.27,3.21,12.65c.63,2.84,3,9.21-1.06,10.52a38.05,38.05,0,0,1-6,1c-2,.29-4.2.34-6,1.09a5.47,5.47,0,0,0-2.14,1.6c-.26.3-.49.63-.74.93s-.32.32-.45.5c-.37.46-.76,0,.36.68s.53.54.75.06a6,6,0,0,0,.17-.73,6,6,0,0,1,.59-1.37,6.12,6.12,0,0,1,2.09-2.11,1.52,1.52,0,0,0-.35-2.74c-1.56-.33-3.23-.52-4.63.4a3.48,3.48,0,0,0-1.5,3.65,1.51,1.51,0,0,0,1.84,1.05A35.77,35.77,0,0,1,41.2,288c2.39-.27,5-.8,6.19-3.1a1.53,1.53,0,0,0-1.7-2.21c-5.35,1.15-10.92-1.37-16,1.45-1.45.8-.47,3.35,1.16,2.74,5.57-2.08,12.14-1,17.12-4.73,1.25-.93.59-3.34-1.16-2.74a24.59,24.59,0,0,1-6.55,1l-7.14.42.4,2.95q7.11-2,14.29-3.84c1.89-.47,1.08-3.27-.8-2.89a39.29,39.29,0,0,1-12,.49l.76,2.8.17,0-1.06-2.56-3.52,2.78A1.51,1.51,0,0,0,32,283a11.18,11.18,0,0,1,3.58,1.31v-2.59s0,.21-.14-.1a4.36,4.36,0,0,1-.23-.6c-.19-.63-.31-1.29-.46-1.94l-1.06-4.49-2.06-8.77c-.4-1.7-2.86-1.23-2.94.4l-.12,2.24,2.94-.4L30.75,265a1.51,1.51,0,0,0-2.89,0,.58.58,0,0,1-.23.44l2.5.66a22.62,22.62,0,0,1,0-7.7l-2.94-.4.06,5.69c0,2,2.77,1.87,3,0a9.19,9.19,0,0,1,1.65-4.11l-2.74-.36a41.69,41.69,0,0,1,1.66,5,1.52,1.52,0,0,0,2.74.36A29.5,29.5,0,0,0,38,250.88H35a18.93,18.93,0,0,1-.37,4.38l2.95.4v-1.25h-3a67.92,67.92,0,0,1-.22,7.94h3a8.49,8.49,0,0,1,.49-2.34H34.93c.78,4.51,1.35,9.47-.78,13.71l2.74.36c-1.87-4.82-.7-10.16-1.69-15.15a1.51,1.51,0,0,0-2.89,0,90.82,90.82,0,0,0-1.43,11h3a4.16,4.16,0,0,1,.33-1.81l-2.74-.35A25.38,25.38,0,0,1,31,278.64a1.5,1.5,0,0,0,2.89.8,15.54,15.54,0,0,0,.75-2.83,1.52,1.52,0,0,0-2.51-1.46,9.41,9.41,0,0,0-2.39,3.57c-.71,1.79,2.19,2.57,2.89.8Z" transform="translate(50.96 -81)"/></svg>