<svg id="レイヤー_1" data-name="レイヤー 1" xmlns="http://www.w3.org/2000/svg" viewBox="0 0 41 41"><defs><style>.cls-1{fill:#fff;}.cls-2{fill:#666;}.cls-3,.cls-6{fill:none;}.cls-3,.cls-5,.cls-6{stroke:#666;stroke-miterlimit:10;}.cls-3,.cls-5{stroke-width:2px;}.cls-4,.cls-5{fill:#754545;}.cls-6{stroke-width:3px;}</style></defs><rect class="cls-1" x="0.5" y="0.5" width="40" height="40"/><path class="cls-2" d="M40,1V40H1V1H40m1-1H0V41H41V0Z" transform="translate(0 0)"/><line class="cls-3" x1="6.5" y1="11.5" x2="10.5" y2="38.5"/><line class="cls-4" x1="6.5" y1="11.5" x2="10.5" y2="38.5"/><line class="cls-3" x1="33.33" y1="11.48" x2="29.67" y2="38.52"/><line class="cls-4" x1="33.33" y1="11.48" x2="29.67" y2="38.52"/><line class="cls-5" x1="6" y1="12" x2="34" y2="12"/><line class="cls-3" x1="10.5" y1="38.5" x2="29.5" y2="38.5"/><line class="cls-5" x1="20" y1="17" x2="20" y2="34"/><line class="cls-5" x1="28" y1="17" x2="25" y2="34"/><line class="cls-5" x1="12" y1="17" x2="15" y2="34"/><line class="cls-6" x1="5.15" y1="8.12" x2="34.85" y2="3.88"/><line class="cls-6" x1="15.99" y1="3.93" x2="22.01" y2="3.07"/></svg>