<svg id="レイヤー_1" data-name="レイヤー 1" xmlns="http://www.w3.org/2000/svg" viewBox="0 0 396.81 476.39"><defs><style>.cls-1,.cls-4,.cls-5{fill:none;}.cls-1,.cls-3,.cls-5,.cls-6,.cls-7{stroke:#4d4d4d;}.cls-1,.cls-3,.cls-4,.cls-5,.cls-6,.cls-7{stroke-miterlimit:10;}.cls-1,.cls-3{stroke-width:26px;}.cls-2,.cls-3,.cls-6,.cls-7{fill:#4d4d4d;}.cls-4{stroke:#f2f2f2;stroke-width:20px;}.cls-5{stroke-width:33px;}.cls-6{stroke-width:15px;}.cls-7{stroke-width:9px;}</style></defs><line class="cls-1" x1="34.9" y1="127.39" x2="76.9" y2="474.39"/><line class="cls-2" x1="34.9" y1="127.39" x2="76.9" y2="474.39"/><line class="cls-1" x1="366.39" y1="128.25" x2="323.9" y2="472.39"/><line class="cls-2" x1="366.39" y1="128.25" x2="323.9" y2="472.39"/><line class="cls-3" x1="66.9" y1="463.39" x2="334.9" y2="462.39"/><line class="cls-3" x1="25.91" y1="136.39" x2="377.91" y2="137.39"/><path class="cls-2" d="M271,302.3A68.09,68.09,0,0,0,317.7,283c11.45-11.45,20.07-30.23,19.33-46.67-.76-17.07-6.37-34.77-19.33-46.67S288.91,170.3,271,170.3a68.14,68.14,0,0,0-46.67,19.33c-11.45,11.45-20.07,30.23-19.33,46.67.76,17.07,6.37,34.78,19.33,46.67S253.15,302.3,271,302.3Z" transform="translate(-51.1 -21.61)"/><path class="cls-2" d="M217.7,289.58a68.1,68.1,0,0,0,46.67-19.34c11.44-11.44,20.06-30.22,19.33-46.66-.77-17.07-6.37-34.78-19.33-46.67s-28.79-19.33-46.67-19.33A68.08,68.08,0,0,0,171,176.91c-11.45,11.44-20.07,30.23-19.33,46.67.76,17.06,6.37,34.77,19.33,46.66s28.78,19.34,46.67,19.34Z" transform="translate(-51.1 -21.61)"/><path class="cls-2" d="M375.22,159.41c-38.76,2.36-77.58,3.35-116.4,3.68-19.25.17-38.5.18-57.75.13-18.18-.05-36.88,1.08-55-1l9.57,1.29a60.69,60.69,0,0,1-14.1-3.52l8.6,3.63a51.07,51.07,0,0,1-5.74-3c-19.58-11.79-47.28-.89-52.88,21.52-5.1,20.38-1.78,40.69,5.09,60.2,5.37,15.25,10,30.22,12.81,46.18,5.91,33.06,11.89,66.31,16.51,99.58l-1.28-9.57c1.78,13.45,2.12,27,3.19,40.48a361.9,361.9,0,0,0,6.89,47.37c4,18.44,26.51,30.9,44.29,25.15,19.42-6.29,29.4-24.54,25.14-44.29q-2.41-11.22-4-22.59l1.28,9.57c-2.84-21.69-3.09-43.56-6.1-65.26-2.72-19.61-6.35-39.12-9.61-58.64-3.16-18.86-5.72-38-10-56.6-4.17-17.88-12.9-34.58-15.67-52.77l1.28,9.57a56.57,56.57,0,0,1-.13-13.7l-1.28,9.57c.28-1.73.62-3.41,1.05-5.11L108.1,222.83c16.73,10.08,36.18,12.12,55.31,12.24q25.8.17,51.6.18c33.85,0,67.7-.21,101.54-1.22q29.35-.87,58.67-2.62c9.57-.58,18.53-3.62,25.46-10.54,6.24-6.25,10.94-16.49,10.54-25.46-.83-18.52-15.87-37.22-36-36Z" transform="translate(-51.1 -21.61)"/><path class="cls-2" d="M213.08,479a29.22,29.22,0,0,1,2.93-2.85l-7.29,5.63a28.45,28.45,0,0,1,5.83-3.31l-8.6,3.63a43.48,43.48,0,0,1,9.47-2.29l-9.57,1.29c9.82-1.08,19.84-.4,29.69-.26l34.65.49,69.31,1c18.84.27,36.86-16.74,36-36-.89-19.73-15.82-35.71-36-36l-87.13-1.23c-29.91-.42-67.88-5.89-90.2,19-6.38,7.12-10.55,15.7-10.55,25.46,0,8.83,3.92,19.37,10.55,25.45,13.72,12.6,37.49,15,50.91,0Z" transform="translate(-51.1 -21.61)"/><path class="cls-2" d="M382.6,418.1c-.37-1.75-.7-3.5-1-5.27l1.28,9.57a93.71,93.71,0,0,1,.36-24.7L382,407.27c1.68-11.4,4.66-22.52,7.36-33.7A257.25,257.25,0,0,0,396.09,331c1.58-23.07-.66-46.27,2.29-69.27l-1.29,9.57a120.54,120.54,0,0,1,5.26-22.48c3.69-10.7.18-22.8-6.44-31.38-7.31-9.46-16.57-13.14-28.27-14.19-18.16-1.62-32.38,11.79-41.58,25.72q-6.35,9.6-12.35,19.41a459.94,459.94,0,0,0-23.42,42.67c-7.86,16.52-15,33.59-20.12,51.16a224.15,224.15,0,0,0-5.5,23c-1.43,7.78-2.06,15.73-4.84,23.2l3.63-8.6a37.4,37.4,0,0,1-3.12,5.82h62.17q-2.75-5.19-5.06-10.55l3.63,8.6c-16.33-39.08-14.72-82.88-30.58-122.11-2.34-5.8-4.74-11.37-9.26-15.89a35.5,35.5,0,0,0-20.67-9.9,34.36,34.36,0,0,0-18.65,2.46c-6.46,2.72-14.36,8-17.22,14.73-10.44,24.66-19.62,49.59-26.18,75.59-2.88,11.42-5.38,23-7.31,34.6-1.26,7.59-2.8,15.49-2,23.23,1.41,13.72,5.66,24,14.62,34.6,8.1,9.56,23.43,12.45,35,9.25,12.65-3.48,21-13,25.15-25.14,5.49-16.24-.67-31.76-6.09-46.87l-12.35-34.45-24.36-68c-6.11-17-20.94-28.28-39.5-25.79-18.26,2.46-30.16,17.27-31.22,35.36-2,34.31.59,68.42,6.22,102.3,1.39,8.37,9.52,17.41,16.54,21.52,7.72,4.51,19.09,6.42,27.74,3.63s17.12-8.22,21.52-16.55c4.78-9.05,5.29-17.68,3.62-27.74q-1.11-6.69-2-13.42l1.29,9.57a419.7,419.7,0,0,1-2.9-79.31L151.76,275l22.36,62.38,11,30.72c3.54,9.88,8.6,20.17,10.21,30.57l-1.29-9.57a15.07,15.07,0,0,1,0,3.29l1.29-9.57a11.29,11.29,0,0,1-.82,3.18l60.17-15.89-1-1.12,5.63,7.28a20.64,20.64,0,0,1-2.06-3.78l3.63,8.6a28.11,28.11,0,0,1-1.05-4.23l1.28,9.57a45.27,45.27,0,0,1,.26-10.66l-1.29,9.57c5.19-35.26,15.87-70.06,29.61-102.88l-3.63,8.6.72-1.71-65.8-8.6c8.8,21.75,12.29,45,16.34,67.93,4.49,25.52,10.69,50.26,22.93,73.33,5.87,11.07,18.81,17.83,31.08,17.83,13.23,0,24-7.08,31.09-17.83,9.58-14.52,9.91-31.59,13.73-47.94A264.92,264.92,0,0,1,350,332.46l-3.63,8.6A394.24,394.24,0,0,1,366.84,300c7.41-13,15-26.5,24-38.42l-5.63,7.29a21.37,21.37,0,0,1,3-2.93l-7.29,5.63,1.13-.68-8.6,3.63a6.14,6.14,0,0,1,2.44-.64l-9.57,1.29,1.31.11-34.71-45.57c-12.61,36.64-5.05,75.36-10,113l1.29-9.57c-2.18,15.05-6.68,29.58-9.76,44.44-4.18,20.2-5.58,39.45-1.27,59.73,3.92,18.45,26.55,30.89,44.29,25.15,19.46-6.3,29.34-24.52,25.14-44.29Z" transform="translate(-51.1 -21.61)"/><path class="cls-2" d="M77.7,153.24c3.86,0,3.86-6,0-6s-3.87,6,0,6Z" transform="translate(-51.1 -21.61)"/><path class="cls-2" d="M77.7,152c3.86,0,3.86-6,0-6s-3.87,6,0,6Z" transform="translate(-51.1 -21.61)"/><path class="cls-2" d="M77.09,152.64c3.86,0,3.87-6,0-6s-3.87,6,0,6Z" transform="translate(-51.1 -21.61)"/><path class="cls-2" d="M77.09,152.64c3.86,0,3.87-6,0-6s-3.87,6,0,6Z" transform="translate(-51.1 -21.61)"/><path class="cls-2" d="M77.09,152.64c3.86,0,3.87-6,0-6s-3.87,6,0,6Z" transform="translate(-51.1 -21.61)"/><path class="cls-2" d="M78.3,152.64c3.86,0,3.87-6,0-6s-3.86,6,0,6Z" transform="translate(-51.1 -21.61)"/><path class="cls-2" d="M80.73,151.42c3.86,0,3.86-6,0-6s-3.87,6,0,6Z" transform="translate(-51.1 -21.61)"/><path class="cls-2" d="M77.7,151.42c3.86,0,3.86-6,0-6s-3.87,6,0,6Z" transform="translate(-51.1 -21.61)"/><path class="cls-2" d="M77.09,152c3.86,0,3.87-6,0-6s-3.87,6,0,6Z" transform="translate(-51.1 -21.61)"/><path class="cls-2" d="M77.09,154.45c3.86,0,3.87-6,0-6s-3.87,6,0,6Z" transform="translate(-51.1 -21.61)"/><path class="cls-2" d="M77.09,156.27c3.86,0,3.87-6,0-6s-3.87,6,0,6Z" transform="translate(-51.1 -21.61)"/><line class="cls-4" x1="90.9" y1="189.39" x2="130.9" y2="415.39"/><line class="cls-4" x1="195.9" y1="185.39" x2="198.9" y2="413.39"/><line class="cls-4" x1="305.9" y1="191.39" x2="271.9" y2="414.39"/><line class="cls-5" x1="18.9" y1="99.39" x2="380.4" y2="62.89"/><ellipse class="cls-5" cx="243.11" cy="70.56" rx="39.8" ry="32.36" transform="translate(-56.95 3.17) rotate(-5.77)"/><ellipse class="cls-6" cx="73.55" cy="120.47" rx="15" ry="9.03" transform="translate(-62.83 -13.61) rotate(-5.77)"/><ellipse class="cls-6" cx="425.55" cy="85.47" rx="15" ry="9.03" transform="translate(-59.48 53.86) rotate(-10.04)"/><path class="cls-7" d="M44.5,265.5" transform="translate(-51.1 -21.61)"/></svg>